<?xml version="1.0" encoding="utf-8"?>
<!-- Generator: Adobe Illustrator 26.3.1, SVG Export Plug-In . SVG Version: 6.00 Build 0)  -->
<svg version="1.1" id="optimism" xmlns="http://www.w3.org/2000/svg" xmlns:xlink="http://www.w3.org/1999/xlink" x="0px" y="0px"
	 viewBox="0 0 30 30" style="enable-background:new 0 0 30 30;" xml:space="preserve">
<style type="text/css">
	.st0{fill:#FF0420;}
	.st1{fill-rule:evenodd;clip-rule:evenodd;fill:#FFFFFF;}
</style>
<path class="st0" d="M15,29.7c8.1,0,14.7-6.6,14.7-14.7c0-8.1-6.6-14.7-14.7-14.7C6.9,0.3,0.3,6.9,0.3,15C0.3,23.1,6.9,29.7,15,29.7
	z"/>
<path class="st1" d="M8.6,18.3c0.6,0.4,1.3,0.6,2.1,0.6c1.1,0,1.9-0.2,2.5-0.7c0.6-0.5,1.1-1.3,1.3-2.3c0.2-0.6,0.3-1.3,0.4-1.9
	c0-0.2,0.1-0.4,0.1-0.6c0-0.5-0.1-1-0.4-1.3c-0.3-0.4-0.6-0.7-1.1-0.8c-0.4-0.2-1-0.3-1.5-0.3c-2.1,0-3.4,1-3.9,3
	c-0.2,0.7-0.3,1.4-0.4,1.9c0,0.2-0.1,0.4-0.1,0.6C7.8,17.3,8,17.9,8.6,18.3z M11.9,16.9c-0.3,0.2-0.6,0.4-1,0.4
	c-0.7,0-1.1-0.3-1.1-1c0-0.2,0-0.3,0-0.5c0.1-0.7,0.3-1.3,0.4-1.8c0.1-0.5,0.3-0.9,0.6-1.1c0.3-0.2,0.6-0.4,1.1-0.4c0.7,0,1,0.3,1,1
	c0,0.2,0,0.3,0,0.5c-0.1,0.5-0.2,1.1-0.4,1.8C12.4,16.3,12.2,16.7,11.9,16.9z M15.4,18.7c0,0.1,0.1,0.1,0.2,0.1H17
	c0.1,0,0.1,0,0.2-0.1c0.1-0.1,0.1-0.1,0.1-0.2l0.5-2.4h1.5c1,0,1.7-0.2,2.3-0.6c0.6-0.4,0.9-1,1.1-1.9c0-0.2,0.1-0.4,0.1-0.6
	c0-0.6-0.2-1.1-0.7-1.5c-0.5-0.3-1.1-0.5-2-0.5h-2.9c-0.1,0-0.1,0-0.2,0.1c-0.1,0.1-0.1,0.1-0.1,0.2l-1.5,7.2
	C15.3,18.6,15.3,18.7,15.4,18.7z M20.2,14.3c-0.2,0.2-0.5,0.3-0.8,0.3h-1.3l0.4-2h1.3c0.3,0,0.5,0.1,0.6,0.2
	c0.1,0.1,0.2,0.3,0.2,0.5c0,0.1,0,0.2,0,0.3C20.6,13.9,20.5,14.2,20.2,14.3z"/>
</svg>
