<?xml version="1.0" encoding="utf-8"?>
<!-- Generator: Adobe Illustrator 26.3.1, SVG Export Plug-In . SVG Version: 6.00 Build 0)  -->
<svg version="1.1" id="fantom" xmlns="http://www.w3.org/2000/svg" xmlns:xlink="http://www.w3.org/1999/xlink" x="0px" y="0px"
	 viewBox="0 0 60 60" style="enable-background:new 0 0 60 60;" xml:space="preserve">
<style type="text/css">
	.st0{fill:#0A15EE;}
	.st1{fill:#FFFFFF;}
</style>
<circle class="st0" cx="30" cy="30" r="30"/>
<path class="st1" d="M28.2,9.5c1-0.5,2.6-0.5,3.6,0l10.5,5.2c0.6,0.3,1,0.8,1,1.2h0v25.9c0,0.5-0.4,1-1,1.3l-10.5,5.2
	c-1,0.5-2.6,0.5-3.6,0l-10.5-5.2c-0.7-0.3-1-0.8-1-1.3c0-0.1,0-0.1,0-0.1V16.1c0,0,0-0.1,0-0.1l0-0.1h0c0-0.5,0.4-0.9,1-1.2
	L28.2,9.5z M41.6,30.4l-9.9,4.9c-1,0.5-2.6,0.5-3.6,0l-9.8-4.8v11.4l9.8,4.8c0.6,0.3,1.1,0.5,1.7,0.6l0.1,0c0.6,0,1.2-0.3,1.7-0.5
	l9.9-4.9V30.4z M15,41.3c0,1,0.1,1.6,0.4,2.1c0.2,0.4,0.5,0.7,1.1,1l0,0c0.1,0.1,0.3,0.2,0.4,0.3l0.2,0.1l0.6,0.3l-0.9,1.3l-0.7-0.4
	L16,46c-0.2-0.1-0.4-0.2-0.5-0.3c-1.6-1-2.2-2.1-2.2-4.4l0-0.1H15z M29.2,23.4c-0.1,0-0.1,0.1-0.2,0.1l-10.5,5.2c0,0,0,0,0,0l0,0
	l0,0l0,0l10.5,5.2c0.1,0,0.1,0.1,0.2,0.1V23.4z M30.8,23.4V34c0.1,0,0.1-0.1,0.2-0.1l10.5-5.2c0,0,0,0,0,0l0,0l0,0l0,0L31,23.5
	C31,23.5,30.9,23.5,30.8,23.4z M41.6,17.8l-9.4,4.6l9.4,4.6V17.8z M18.3,17.8V27l9.4-4.6L18.3,17.8z M31,10.9
	c-0.5-0.3-1.5-0.3-2.1,0l-10.5,5.2c0,0,0,0,0,0l0,0l0,0l0,0l10.5,5.2c0.5,0.3,1.5,0.3,2.1,0l10.5-5.2c0,0,0,0,0,0l0,0l0,0l0,0
	L31,10.9z M43.2,11.5l0.7,0.4l0.1,0.1c0.2,0.1,0.4,0.2,0.5,0.3c1.6,1,2.2,2.1,2.2,4.4l0,0.1H45c0-1-0.1-1.6-0.4-2.1
	c-0.2-0.4-0.5-0.7-1.1-1l0,0c-0.1-0.1-0.3-0.2-0.4-0.3l-0.2-0.1l-0.6-0.3L43.2,11.5z"/>
</svg>
