<svg width="107" height="107" viewBox="0 0 107 107" fill="none" xmlns="http://www.w3.org/2000/svg">
<path d="M85.1415 69.4278C93.9053 53.2508 75.5878 49.837 75.5878 49.837C80.7848 33.6595 64.6078 32.1054 64.6078 32.1054C66.7219 25.7619 53.5511 18.9597 55.2578 15.0109C55.8694 13.5078 54.9778 13.5078 54.9778 13.5078C41.9847 18.1445 39.3097 28.8445 39.2333 33.6085C39.2078 34.9333 27.5907 34.8059 28.5588 49.8624C28.6097 50.6266 28.3295 51.3145 27.6162 51.6204C19.0816 55.2124 18.725 65.4029 20.1771 68.6891C20.1771 68.6891 20.5593 68.6637 19.9988 68.7145C12.6871 69.4024 10.1904 75.5424 10.1904 80.4845C10.1904 85.682 13.7571 93.5028 24.1514 93.5028C29.909 93.5028 33.7304 92.5349 47.3349 92.5349C60.939 92.5349 65.5757 93.5028 82.8486 93.5028C84.4536 93.5028 83.9186 93.5028 85.1161 93.5028C88.3515 93.5028 96.784 90.5733 96.784 82.4462C96.784 74.3195 89.0136 69.4278 85.1415 69.4278Z" fill="url(#paint0_linear_4_7722)"/>
<path d="M85.1415 69.4278C93.9053 53.2508 75.5878 49.837 75.5878 49.837C80.7848 33.6595 64.6078 32.1054 64.6078 32.1054C66.7219 25.7619 53.5511 18.9597 55.2578 15.0109C55.8694 13.5078 54.9778 13.5078 54.9778 13.5078C41.9847 18.1445 39.3097 28.8445 39.2333 33.6085C39.2078 34.9333 27.5907 34.8059 28.5588 49.8624C28.6097 50.6266 28.3295 51.3145 27.6162 51.6204C19.0816 55.2124 18.725 65.4029 20.1771 68.6891C20.1771 68.6891 20.5593 68.6637 19.9988 68.7145C12.6871 69.4024 10.1904 75.5424 10.1904 80.4845C10.1904 85.682 13.7571 93.5028 24.1514 93.5028C29.909 93.5028 33.7304 92.5349 47.3349 92.5349C60.939 92.5349 65.5757 93.5028 82.8486 93.5028C84.4536 93.5028 83.9186 93.5028 85.1161 93.5028C88.3515 93.5028 96.784 90.5733 96.784 82.4462C96.784 74.3195 89.0136 69.4278 85.1415 69.4278Z" fill="url(#paint1_radial_4_7722)"/>
<path d="M75.5877 49.8326C80.7848 33.6553 64.6077 32.1012 64.6077 32.1012C66.7223 25.7577 53.8564 19.2867 55.2577 15.0067C55.7673 13.4527 54.9777 13.5036 54.9777 13.5036C41.9848 18.1403 39.3097 28.8403 39.2333 33.6043C39.2078 34.9291 27.5907 34.8017 28.5588 49.858C28.6097 50.6226 28.355 51.3613 27.6162 51.6159C37.0933 51.6159 41.3224 72.6592 85.1161 69.3984C93.676 52.5842 75.5877 49.8326 75.5877 49.8326Z" fill="url(#paint2_linear_4_7722)"/>
<path d="M75.5877 49.8326C80.7848 33.6553 64.6077 32.1012 64.6077 32.1012C66.7223 25.7577 53.8564 19.2867 55.2577 15.0067C55.7673 13.4527 54.9777 13.5036 54.9777 13.5036C41.9848 18.1403 39.3097 28.8403 39.2333 33.6043C39.2078 34.9291 27.5907 34.8017 28.5588 49.858C28.6097 50.6226 28.355 51.3613 27.6162 51.6159C37.0933 51.6159 41.3224 72.6592 85.1161 69.3984C93.676 52.5842 75.5877 49.8326 75.5877 49.8326Z" fill="url(#paint3_radial_4_7722)"/>
<path d="M64.607 32.1011C66.7216 25.7575 53.7546 19.1847 55.2575 15.0066C55.7925 13.478 54.977 13.5034 54.977 13.5034C41.9843 18.1401 39.3093 28.8401 39.2329 33.6042C39.2329 33.6042 37.8572 49.5521 75.5875 49.8326C80.7845 33.6551 64.607 32.1011 64.607 32.1011Z" fill="url(#paint4_linear_4_7722)"/>
<path d="M47.3349 92.5319C60.9644 92.5319 65.5757 93.5002 82.8486 93.5002C38.0869 93.5002 28.2531 68.686 20.1771 68.686C20.1771 68.686 20.1516 68.686 20.1771 68.686C12.305 69.5523 10.1904 75.8706 10.1904 80.4819C10.1904 85.679 13.7571 93.5002 24.1514 93.5002C29.909 93.5002 33.705 92.5319 47.3349 92.5319Z" fill="url(#paint5_linear_4_7722)"/>
<path d="M43.1308 22.1655C40.1246 26.4455 39.2584 30.9548 39.2329 33.6043C39.2329 33.6043 37.8572 49.5523 75.5875 49.8327C46.3154 48.0494 37.577 34.5215 43.1308 22.1655Z" fill="url(#paint6_linear_4_7722)"/>
<path d="M85.1414 69.4223C86.4918 66.7982 87.1539 64.5053 87.3576 62.5182C85.1414 69.4223 66.0343 69.8298 50.4172 63.5628C36.5073 57.9836 29.5523 50.3153 28.7371 45.0928C28.5333 46.4936 28.4569 48.0732 28.5842 49.8819C28.6352 50.6465 28.3804 51.3853 27.6416 51.6398C34.7495 52.3278 41.3223 72.6578 85.1414 69.4223Z" fill="url(#paint7_linear_4_7722)"/>
<path d="M19.8213 68.7373C19.9487 68.7119 20.076 68.7119 20.178 68.6865C20.127 68.6865 20.076 68.6861 20.0251 68.7119C19.9487 68.7119 19.8722 68.7373 19.8213 68.7373Z" fill="url(#paint8_linear_4_7722)"/>
<path opacity="0.5" d="M64.607 32.1011C66.7216 25.7575 53.7546 19.1847 55.2575 15.0066C55.7925 13.478 54.977 13.5034 54.977 13.5034C41.9843 18.1401 39.3093 28.8401 39.2329 33.6042C39.2329 33.6042 37.8572 49.5521 75.5875 49.8326C80.7845 33.6551 64.607 32.1011 64.607 32.1011Z" fill="url(#paint9_radial_4_7722)"/>
<path opacity="0.5" d="M64.607 32.1011C66.7216 25.7575 53.7546 19.1847 55.2575 15.0066C55.7925 13.478 54.977 13.5034 54.977 13.5034C41.9843 18.1401 39.3093 28.8401 39.2329 33.6042C39.2329 33.6042 37.8572 49.5521 75.5875 49.8326C80.7845 33.6551 64.607 32.1011 64.607 32.1011Z" fill="url(#paint10_radial_4_7722)"/>
<path d="M53.6523 26.7767C55.8182 31.5407 64.6074 32.1012 64.6074 32.1012C66.4923 26.471 56.5057 20.6624 55.2573 16.5098C55.2832 16.5098 51.6398 22.3184 53.6523 26.7767Z" fill="url(#paint11_linear_4_7722)"/>
<path d="M53.6523 26.7767C55.8182 31.5407 64.6074 32.1012 64.6074 32.1012C66.4923 26.471 56.5057 20.6624 55.2573 16.5098C55.2832 16.5098 51.6398 22.3184 53.6523 26.7767Z" fill="url(#paint12_radial_4_7722)"/>
<path opacity="0.5" d="M75.5877 49.8313C37.8831 49.5513 39.2333 33.603 39.2333 33.603C39.2078 34.9278 27.5907 34.8004 28.5588 49.8567C28.6097 50.6213 28.355 51.3601 27.6162 51.6147C37.0933 51.6147 41.3224 72.658 85.1161 69.3972C93.676 52.583 75.5877 49.8313 75.5877 49.8313Z" fill="url(#paint13_radial_4_7722)"/>
<path d="M28.5842 49.8579C28.6352 50.6221 28.3549 51.31 27.6416 51.6158C28.3549 51.3608 28.6352 50.6221 28.5842 49.8579Z" fill="url(#paint14_radial_4_7722)"/>
<path opacity="0.5" d="M85.1415 69.4236C41.3478 72.6844 37.1188 51.6411 27.6416 51.6411C19.1071 55.2332 18.7504 65.4236 20.2026 68.7103C20.2026 68.7103 20.5847 68.6849 20.0243 68.7357C12.6871 69.3982 10.1904 75.5378 10.1904 80.4803C10.1904 85.6774 13.7571 93.4986 24.1514 93.4986C29.909 93.4986 33.7304 92.5303 47.3349 92.5303C60.939 92.5303 65.5757 93.4986 82.8486 93.4986C84.4536 93.4986 83.9186 93.4986 85.1161 93.4986C88.3515 93.4986 96.784 90.5686 96.784 82.442C96.784 74.3149 89.0136 69.4236 85.1415 69.4236Z" fill="url(#paint15_radial_4_7722)"/>
<path d="M47.3349 92.5319C60.9644 92.5319 65.5757 93.5002 82.8486 93.5002C38.0869 93.5002 28.2531 68.686 20.1771 68.686C20.1771 68.686 20.1516 68.686 20.1771 68.686C12.305 69.5523 10.1904 75.8706 10.1904 80.4819C10.1904 85.679 13.7571 93.5002 24.1514 93.5002C29.909 93.5002 33.705 92.5319 47.3349 92.5319Z" fill="url(#paint16_radial_4_7722)"/>
<path opacity="0.24" d="M47.3349 92.5319C60.9644 92.5319 65.5757 93.5002 82.8486 93.5002C38.0869 93.5002 28.2531 68.686 20.1771 68.686C20.1771 68.686 20.1516 68.686 20.1771 68.686C12.305 69.5523 10.1904 75.8706 10.1904 80.4819C10.1904 85.679 13.7571 93.5002 24.1514 93.5002C29.909 93.5002 33.705 92.5319 47.3349 92.5319Z" fill="url(#paint17_radial_4_7722)"/>
<path opacity="0.24" d="M85.1415 69.4236C41.3478 72.6844 37.1188 51.6411 27.6416 51.6411C19.1071 55.2332 18.7504 65.4236 20.2026 68.7103C20.2026 68.7103 20.5847 68.6849 20.0243 68.7357C12.6871 69.3982 10.1904 75.5378 10.1904 80.4803C10.1904 85.6774 13.7571 93.4986 24.1514 93.4986C29.909 93.4986 33.7304 92.5303 47.3349 92.5303C60.939 92.5303 65.5757 93.4986 82.8486 93.4986C84.4536 93.4986 83.9186 93.4986 85.1161 93.4986C88.3515 93.4986 96.784 90.5686 96.784 82.442C96.784 74.3149 89.0136 69.4236 85.1415 69.4236Z" fill="url(#paint18_radial_4_7722)"/>
<path opacity="0.75" d="M56.8115 54.2408C56.8115 59.8199 60.9386 64.3295 66.0336 64.3295C71.129 64.3295 75.2561 59.8199 75.2561 54.2408C75.2561 48.6616 71.129 44.7383 66.0336 44.7383C60.9386 44.7383 56.8115 48.6616 56.8115 54.2408Z" fill="url(#paint19_radial_4_7722)"/>
<path opacity="0.75" d="M56.8115 55.5146C56.8115 61.0942 60.9386 65.6033 66.0336 65.6033C71.129 65.6033 75.2561 61.0942 75.2561 55.5146C75.2561 49.9354 71.129 46.2158 66.0336 46.2158C60.9386 46.2158 56.8115 49.9354 56.8115 55.5146Z" fill="url(#paint20_radial_4_7722)"/>
<path opacity="0.75" d="M31.7178 54.2408C31.7178 59.8199 35.8449 64.3295 40.9401 64.3295C46.0354 64.3295 50.1625 59.8199 50.1625 54.2408C50.1625 48.6616 46.0354 44.7383 40.9401 44.7383C35.8449 44.7383 31.7178 48.6616 31.7178 54.2408Z" fill="url(#paint21_radial_4_7722)"/>
<path opacity="0.75" d="M31.7178 55.5146C31.7178 61.0942 35.8449 65.6033 40.9401 65.6033C46.0354 65.6033 50.1625 61.0942 50.1625 55.5146C50.1625 49.9354 46.0354 46.2158 40.9401 46.2158C35.8449 46.2158 31.7178 49.9354 31.7178 55.5146Z" fill="url(#paint22_radial_4_7722)"/>
<path d="M66.0594 64.3298C71.1526 64.3298 75.2819 60.201 75.2819 55.1078C75.2819 50.0141 71.1526 45.8853 66.0594 45.8853C60.9662 45.8853 56.8369 50.0141 56.8369 55.1078C56.8369 60.201 60.9662 64.3298 66.0594 64.3298Z" fill="url(#paint23_linear_4_7722)"/>
<path d="M70.5996 62.3307C74.5911 59.8233 75.7944 54.5553 73.2871 50.5638C70.7801 46.5727 65.5122 45.3694 61.5206 47.8763C57.5291 50.3837 56.3258 55.6516 58.8331 59.6432C61.3401 63.6343 66.6085 64.8376 70.5996 62.3307Z" fill="white"/>
<path d="M66.06 63.6424C70.7733 63.6424 74.5946 59.8212 74.5946 55.1078C74.5946 50.394 70.7733 46.5732 66.06 46.5732C61.3466 46.5732 57.5254 50.394 57.5254 55.1078C57.5254 59.8212 61.3466 63.6424 66.06 63.6424Z" fill="url(#paint24_radial_4_7722)"/>
<path d="M66.06 63.6424C70.7733 63.6424 74.5946 59.8212 74.5946 55.1078C74.5946 50.394 70.7733 46.5732 66.06 46.5732C61.3466 46.5732 57.5254 50.394 57.5254 55.1078C57.5254 59.8212 61.3466 63.6424 66.06 63.6424Z" fill="url(#paint25_radial_4_7722)"/>
<path d="M66.0594 64.3298C71.1526 64.3298 75.2819 60.201 75.2819 55.1078C75.2819 50.0141 71.1526 45.8853 66.0594 45.8853C60.9662 45.8853 56.8369 50.0141 56.8369 55.1078C56.8369 60.201 60.9662 64.3298 66.0594 64.3298Z" fill="url(#paint26_radial_4_7722)"/>
<path d="M66.0593 59.3368C68.395 59.3368 70.2884 57.4438 70.2884 55.1081C70.2884 52.7724 68.395 50.8789 66.0593 50.8789C63.7235 50.8789 61.8301 52.7724 61.8301 55.1081C61.8301 57.4438 63.7235 59.3368 66.0593 59.3368Z" fill="url(#paint27_linear_4_7722)"/>
<path d="M66.0587 58.0364C67.7145 58.0364 69.2174 57.2722 70.1604 56.0493C69.727 57.9343 68.0458 59.3356 66.0587 59.3356C64.0458 59.3356 62.3645 57.9343 61.957 56.0493C62.8995 57.2464 64.377 58.0364 66.0587 58.0364Z" fill="url(#paint28_linear_4_7722)"/>
<path d="M53.4931 71.1744C65.2375 71.1744 68.9825 83.7594 65.4159 81.7978C60.6265 79.1482 57.5694 78.8936 53.4931 78.8936C49.4169 78.8936 46.3852 79.1482 41.5702 81.7977C38.0035 83.7594 41.7485 71.1744 53.4931 71.1744Z" fill="url(#paint29_linear_4_7722)"/>
<path d="M41.5701 81.7986C46.3596 79.149 49.4167 78.8944 53.493 78.8944C57.5688 78.8944 60.6004 79.149 65.4156 81.7986C66.664 82.4865 67.0206 81.4165 66.4602 79.7094C66.4602 79.7348 66.2818 81.5694 64.6004 80.2952C64.6004 80.2952 58.4096 76.5761 53.5184 76.5761C48.6267 76.5761 42.4363 80.2952 42.4363 80.2952C40.7546 81.5435 40.5763 79.7348 40.5763 79.7094C39.9651 81.3911 40.3217 82.4865 41.5701 81.7986Z" fill="url(#paint30_linear_4_7722)"/>
<path d="M40.9401 64.3298C46.0337 64.3298 50.1625 60.201 50.1625 55.1078C50.1625 50.0141 46.0337 45.8853 40.9401 45.8853C35.8468 45.8853 31.7178 50.0141 31.7178 55.1078C31.7178 60.201 35.8468 64.3298 40.9401 64.3298Z" fill="url(#paint31_linear_4_7722)"/>
<path d="M45.4835 62.3413C49.4746 59.8343 50.6779 54.5659 48.1709 50.5748C45.6636 46.5833 40.3957 45.38 36.4043 47.8873C32.4129 50.3943 31.2097 55.6622 33.7168 59.6538C36.2239 63.6453 41.492 64.8482 45.4835 62.3413Z" fill="white"/>
<path d="M40.9398 63.6424C45.6534 63.6424 49.4742 59.8212 49.4742 55.1078C49.4742 50.394 45.6534 46.5732 40.9398 46.5732C36.2263 46.5732 32.4053 50.394 32.4053 55.1078C32.4053 59.8212 36.2263 63.6424 40.9398 63.6424Z" fill="url(#paint32_radial_4_7722)"/>
<path d="M40.9398 63.6424C45.6534 63.6424 49.4742 59.8212 49.4742 55.1078C49.4742 50.394 45.6534 46.5732 40.9398 46.5732C36.2263 46.5732 32.4053 50.394 32.4053 55.1078C32.4053 59.8212 36.2263 63.6424 40.9398 63.6424Z" fill="url(#paint33_radial_4_7722)"/>
<path d="M40.9401 64.3298C46.0337 64.3298 50.1625 60.201 50.1625 55.1078C50.1625 50.0141 46.0337 45.8853 40.9401 45.8853C35.8468 45.8853 31.7178 50.0141 31.7178 55.1078C31.7178 60.201 35.8468 64.3298 40.9401 64.3298Z" fill="url(#paint34_radial_4_7722)"/>
<path d="M40.941 59.3353C43.2766 59.3353 45.1699 57.4418 45.1699 55.1061C45.1699 52.7704 43.2766 50.877 40.941 50.877C38.6053 50.877 36.7119 52.7704 36.7119 55.1061C36.7119 57.4418 38.6053 59.3353 40.941 59.3353Z" fill="url(#paint35_linear_4_7722)"/>
<path d="M40.9405 58.0364C42.5965 58.0364 44.0996 57.2722 45.042 56.0493C44.6091 57.9343 42.9277 59.3356 40.9405 59.3356C38.9279 59.3356 37.2465 57.9343 36.8389 56.0493C37.8069 57.2464 39.2846 58.0364 40.9405 58.0364Z" fill="url(#paint36_linear_4_7722)"/>
<defs>
<linearGradient id="paint0_linear_4_7722" x1="60.2685" y1="54.6324" x2="49.7477" y2="95.9567" gradientUnits="userSpaceOnUse">
<stop offset="0.3105" stop-color="#7A4400"/>
<stop offset="1" stop-color="#643800"/>
</linearGradient>
<radialGradient id="paint1_radial_4_7722" cx="0" cy="0" r="1" gradientUnits="userSpaceOnUse" gradientTransform="translate(34.842 104.683) rotate(109.427) scale(29.9139 78.0752)">
<stop stop-color="#3C2200"/>
<stop offset="1" stop-color="#3C2200" stop-opacity="0"/>
</radialGradient>
<linearGradient id="paint2_linear_4_7722" x1="55.8966" y1="71.3503" x2="61.6501" y2="20.0122" gradientUnits="userSpaceOnUse">
<stop offset="0.3105" stop-color="#7A4400"/>
<stop offset="1" stop-color="#A66C3F"/>
</linearGradient>
<radialGradient id="paint3_radial_4_7722" cx="0" cy="0" r="1" gradientUnits="userSpaceOnUse" gradientTransform="translate(83.2921 75.2705) rotate(1.82138) scale(36.7802 16.7948)">
<stop stop-color="#3C2200"/>
<stop offset="1" stop-color="#3C2200" stop-opacity="0"/>
</radialGradient>
<linearGradient id="paint4_linear_4_7722" x1="53.2147" y1="46.3702" x2="70.566" y2="16.8724" gradientUnits="userSpaceOnUse">
<stop offset="0.3105" stop-color="#7A4400"/>
<stop offset="1" stop-color="#A66C3F"/>
</linearGradient>
<linearGradient id="paint5_linear_4_7722" x1="39.7891" y1="45.3016" x2="47.2684" y2="92.1279" gradientUnits="userSpaceOnUse">
<stop offset="0.3105" stop-color="#7A4400"/>
<stop offset="1" stop-color="#643800"/>
</linearGradient>
<linearGradient id="paint6_linear_4_7722" x1="58.142" y1="36.8358" x2="53.1491" y2="66.3597" gradientUnits="userSpaceOnUse">
<stop stop-color="#643800" stop-opacity="0"/>
<stop offset="1" stop-color="#512D00"/>
</linearGradient>
<linearGradient id="paint7_linear_4_7722" x1="30.7694" y1="78.9413" x2="77.6737" y2="40.0343" gradientUnits="userSpaceOnUse">
<stop stop-color="#643800" stop-opacity="0"/>
<stop offset="1" stop-color="#512D00"/>
</linearGradient>
<linearGradient id="paint8_linear_4_7722" x1="26.7921" y1="48.1604" x2="11.304" y2="94.9327" gradientUnits="userSpaceOnUse">
<stop stop-color="#643800" stop-opacity="0"/>
<stop offset="1" stop-color="#512D00"/>
</linearGradient>
<radialGradient id="paint9_radial_4_7722" cx="0" cy="0" r="1" gradientUnits="userSpaceOnUse" gradientTransform="translate(38.2426 48.7269) rotate(28.7804) scale(36.0484 19.4343)">
<stop stop-color="#3C2200"/>
<stop offset="1" stop-color="#3C2200" stop-opacity="0"/>
</radialGradient>
<radialGradient id="paint10_radial_4_7722" cx="0" cy="0" r="1" gradientUnits="userSpaceOnUse" gradientTransform="translate(65.0176 33.7681) rotate(24.6928) scale(25.7097 12.0763)">
<stop stop-color="#C86F34"/>
<stop offset="1" stop-color="#C86F34" stop-opacity="0"/>
</radialGradient>
<linearGradient id="paint11_linear_4_7722" x1="55.5342" y1="29.58" x2="66.4415" y2="16.5341" gradientUnits="userSpaceOnUse">
<stop offset="0.3105" stop-color="#7A4400"/>
<stop offset="1" stop-color="#A66C3F"/>
</linearGradient>
<radialGradient id="paint12_radial_4_7722" cx="0" cy="0" r="1" gradientUnits="userSpaceOnUse" gradientTransform="translate(40.3608 4.52987) scale(38.138 38.2639)">
<stop stop-color="#3C2200"/>
<stop offset="1" stop-color="#3C2200" stop-opacity="0"/>
</radialGradient>
<radialGradient id="paint13_radial_4_7722" cx="0" cy="0" r="1" gradientUnits="userSpaceOnUse" gradientTransform="translate(67.5038 36.5348) scale(31.7898 31.8947)">
<stop stop-color="#C86F34"/>
<stop offset="1" stop-color="#C86F34" stop-opacity="0"/>
</radialGradient>
<radialGradient id="paint14_radial_4_7722" cx="0" cy="0" r="1" gradientUnits="userSpaceOnUse" gradientTransform="translate(41.9811 71.6873) rotate(18.953) scale(34.0654 12.5471)">
<stop stop-color="#C86F34"/>
<stop offset="1" stop-color="#C86F34" stop-opacity="0"/>
</radialGradient>
<radialGradient id="paint15_radial_4_7722" cx="0" cy="0" r="1" gradientUnits="userSpaceOnUse" gradientTransform="translate(12.8939 53.9505) rotate(18.953) scale(43.3978 13.1877)">
<stop stop-color="#C86F34"/>
<stop offset="1" stop-color="#C86F34" stop-opacity="0"/>
</radialGradient>
<radialGradient id="paint16_radial_4_7722" cx="0" cy="0" r="1" gradientUnits="userSpaceOnUse" gradientTransform="translate(41.9799 69.5924) rotate(-53.3211) scale(19.4191 37.6961)">
<stop stop-color="#3C2200"/>
<stop offset="1" stop-color="#3C2200" stop-opacity="0"/>
</radialGradient>
<radialGradient id="paint17_radial_4_7722" cx="0" cy="0" r="1" gradientUnits="userSpaceOnUse" gradientTransform="translate(22.6243 80.226) rotate(-76.7811) scale(8.56094 31.9476)">
<stop stop-color="#C86F34"/>
<stop offset="1" stop-color="#C86F34" stop-opacity="0"/>
</radialGradient>
<radialGradient id="paint18_radial_4_7722" cx="0" cy="0" r="1" gradientUnits="userSpaceOnUse" gradientTransform="translate(82.8562 75.5971) rotate(179.429) scale(21.59 8.14158)">
<stop stop-color="#C86F34"/>
<stop offset="1" stop-color="#C86F34" stop-opacity="0"/>
</radialGradient>
<radialGradient id="paint19_radial_4_7722" cx="0" cy="0" r="1" gradientUnits="userSpaceOnUse" gradientTransform="translate(65.7554 50.1699) rotate(180) scale(9.17498 10.0323)">
<stop stop-color="#362501" stop-opacity="0.4"/>
<stop offset="1" stop-color="#362501" stop-opacity="0"/>
</radialGradient>
<radialGradient id="paint20_radial_4_7722" cx="0" cy="0" r="1" gradientUnits="userSpaceOnUse" gradientTransform="translate(66.6524 56.416) scale(9.66968 9.66968)">
<stop stop-color="#3D2A20" stop-opacity="0.4"/>
<stop offset="0.1673" stop-color="#4B3021" stop-opacity="0.5004"/>
<stop offset="0.7156" stop-color="#734423" stop-opacity="0.8294"/>
<stop offset="1" stop-color="#824B24"/>
</radialGradient>
<radialGradient id="paint21_radial_4_7722" cx="0" cy="0" r="1" gradientUnits="userSpaceOnUse" gradientTransform="translate(40.6594 50.1699) rotate(180) scale(9.17498 10.0323)">
<stop stop-color="#362501" stop-opacity="0.4"/>
<stop offset="1" stop-color="#362501" stop-opacity="0"/>
</radialGradient>
<radialGradient id="paint22_radial_4_7722" cx="0" cy="0" r="1" gradientUnits="userSpaceOnUse" gradientTransform="translate(41.5565 56.416) scale(9.66968)">
<stop stop-color="#3D2A20" stop-opacity="0.4"/>
<stop offset="0.1673" stop-color="#4B3021" stop-opacity="0.5004"/>
<stop offset="0.7156" stop-color="#734423" stop-opacity="0.8294"/>
<stop offset="1" stop-color="#824B24"/>
</radialGradient>
<linearGradient id="paint23_linear_4_7722" x1="72.0033" y1="98.4758" x2="65.252" y2="49.3066" gradientUnits="userSpaceOnUse">
<stop offset="0.00132565" stop-color="#3C2200"/>
<stop offset="1" stop-color="#512D00"/>
</linearGradient>
<radialGradient id="paint24_radial_4_7722" cx="0" cy="0" r="1" gradientUnits="userSpaceOnUse" gradientTransform="translate(66.0493 56.1413) rotate(90) scale(10.7165 10.8471)">
<stop stop-color="#CFDCDE" stop-opacity="0"/>
<stop offset="0.8869" stop-color="#CFDCDE" stop-opacity="0.8869"/>
<stop offset="1" stop-color="#CFDCDE"/>
</radialGradient>
<radialGradient id="paint25_radial_4_7722" cx="0" cy="0" r="1" gradientUnits="userSpaceOnUse" gradientTransform="translate(66.1456 55.6919) rotate(180) scale(9.20864 9.20865)">
<stop stop-color="white" stop-opacity="0"/>
<stop offset="0.4376" stop-color="#FDFEFE" stop-opacity="0.3499"/>
<stop offset="0.5952" stop-color="#F6F8F9" stop-opacity="0.4759"/>
<stop offset="0.7075" stop-color="#EBEFF0" stop-opacity="0.5657"/>
<stop offset="0.7983" stop-color="#DAE2E3" stop-opacity="0.6384"/>
<stop offset="0.8752" stop-color="#C4D1D3" stop-opacity="0.6999"/>
<stop offset="0.9004" stop-color="#BBCACC" stop-opacity="0.72"/>
<stop offset="1" stop-color="#99AFB3"/>
</radialGradient>
<radialGradient id="paint26_radial_4_7722" cx="0" cy="0" r="1" gradientUnits="userSpaceOnUse" gradientTransform="translate(65.989 55.1024) rotate(180) scale(9.36032)">
<stop offset="0.8827" stop-color="#643800" stop-opacity="0"/>
<stop offset="0.9161" stop-color="#3C2200" stop-opacity="0.5"/>
<stop offset="0.9866" stop-color="#643800" stop-opacity="0"/>
</radialGradient>
<linearGradient id="paint27_linear_4_7722" x1="66.0477" y1="162.461" x2="66.0477" y2="154.335" gradientUnits="userSpaceOnUse">
<stop offset="0.00132565" stop-color="#3C2200"/>
<stop offset="1" stop-color="#512D00"/>
</linearGradient>
<linearGradient id="paint28_linear_4_7722" x1="66.0471" y1="54.2508" x2="66.0471" y2="60.6213" gradientUnits="userSpaceOnUse">
<stop offset="0.00132565" stop-color="#3C2200"/>
<stop offset="1"/>
</linearGradient>
<linearGradient id="paint29_linear_4_7722" x1="53.4936" y1="72.4375" x2="53.4936" y2="79.7648" gradientUnits="userSpaceOnUse">
<stop offset="0.00132565" stop-color="#3C2200"/>
<stop offset="1" stop-color="#512D00"/>
</linearGradient>
<linearGradient id="paint30_linear_4_7722" x1="53.4934" y1="75.7504" x2="53.4934" y2="100.718" gradientUnits="userSpaceOnUse">
<stop offset="0.00132565" stop-color="#3C2200"/>
<stop offset="1"/>
</linearGradient>
<linearGradient id="paint31_linear_4_7722" x1="46.907" y1="98.4758" x2="40.156" y2="49.3066" gradientUnits="userSpaceOnUse">
<stop offset="0.00132565" stop-color="#3C2200"/>
<stop offset="1" stop-color="#512D00"/>
</linearGradient>
<radialGradient id="paint32_radial_4_7722" cx="0" cy="0" r="1" gradientUnits="userSpaceOnUse" gradientTransform="translate(40.9524 56.1413) rotate(90) scale(10.7165 10.8471)">
<stop stop-color="#CFDCDE" stop-opacity="0"/>
<stop offset="0.8869" stop-color="#CFDCDE" stop-opacity="0.8869"/>
<stop offset="1" stop-color="#CFDCDE"/>
</radialGradient>
<radialGradient id="paint33_radial_4_7722" cx="0" cy="0" r="1" gradientUnits="userSpaceOnUse" gradientTransform="translate(41.0487 55.6919) rotate(180) scale(9.20864 9.20865)">
<stop stop-color="white" stop-opacity="0"/>
<stop offset="0.4376" stop-color="#FDFEFE" stop-opacity="0.3499"/>
<stop offset="0.5952" stop-color="#F6F8F9" stop-opacity="0.4759"/>
<stop offset="0.7075" stop-color="#EBEFF0" stop-opacity="0.5657"/>
<stop offset="0.7983" stop-color="#DAE2E3" stop-opacity="0.6384"/>
<stop offset="0.8752" stop-color="#C4D1D3" stop-opacity="0.6999"/>
<stop offset="0.9004" stop-color="#BBCACC" stop-opacity="0.72"/>
<stop offset="1" stop-color="#99AFB3"/>
</radialGradient>
<radialGradient id="paint34_radial_4_7722" cx="0" cy="0" r="1" gradientUnits="userSpaceOnUse" gradientTransform="translate(40.8929 55.1024) rotate(180) scale(9.36031 9.36032)">
<stop offset="0.8827" stop-color="#643800" stop-opacity="0"/>
<stop offset="0.9161" stop-color="#3C2200" stop-opacity="0.5"/>
<stop offset="0.9866" stop-color="#643800" stop-opacity="0"/>
</radialGradient>
<linearGradient id="paint35_linear_4_7722" x1="40.9527" y1="162.459" x2="40.9527" y2="154.333" gradientUnits="userSpaceOnUse">
<stop offset="0.00132565" stop-color="#3C2200"/>
<stop offset="1" stop-color="#512D00"/>
</linearGradient>
<linearGradient id="paint36_linear_4_7722" x1="40.9522" y1="54.2508" x2="40.9522" y2="60.6213" gradientUnits="userSpaceOnUse">
<stop offset="0.00132565" stop-color="#3C2200"/>
<stop offset="1"/>
</linearGradient>
</defs>
</svg>
