<?xml version="1.0" encoding="UTF-8"?>
<svg width="63px" height="41px" viewBox="0 0 63 41" version="1.1" xmlns="http://www.w3.org/2000/svg" xmlns:xlink="http://www.w3.org/1999/xlink">
    <title>admin</title>
    <g id="Page-1" stroke="none" stroke-width="1" fill="none" fill-rule="evenodd">
        <g id="admin" fill="#E5E5EA" fill-rule="nonzero">
            <path d="M60.9753906,7.53938305 C60.3338245,7.15381851 59.6020001,6.95244085 58.8555392,6.95244085 C57.9383193,6.95244085 57.0357358,7.26433064 56.3234267,7.81934711 L44.626433,16.5669961 L34.9273199,1.85660377 C34.1637831,0.694998503 32.8782115,0 31.4926239,0 L31.4682298,0 C30.1021575,0.0147349506 28.8336619,0.709733453 28.0798827,1.85660377 L18.3783302,16.5669961 L6.69109418,7.82917041 C5.966588,7.26433064 5.06400454,6.95244085 4.14678459,6.95244085 C3.40032368,6.95244085 2.66849925,7.15627433 2.02693317,7.53938305 C0.553526663,8.42102426 -0.222207228,10.095897 0.0558860541,11.7928721 L3.86625189,37.4415094 C4.17117874,39.4994909 5.89584497,40.9975442 7.96446868,41 L54.984188,41 C57.0528117,41 58.7750385,39.5019467 59.0799654,37.4439653 L62.9439983,11.8051512 C63.2220916,10.0983528 62.4487971,8.42348008 60.9729512,7.54183887 L60.9753906,7.53938305 Z M4.30046772,11.42941 L5.25183947,12.1858041 L5.25183947,12.1293202 L15.8779301,20.0886493 C16.5999969,20.6191075 17.4537921,20.8990716 18.3490573,20.8990716 C18.5856805,20.8990716 18.8247431,20.879425 19.0564875,20.837676 C20.1786183,20.6461216 21.1787784,19.9879605 21.7983897,19.0326445 L31.475548,4.35908955 L41.1502669,19.0301887 C41.7723177,19.9879605 42.7724778,20.6485774 43.8921691,20.8401318 C44.1263529,20.879425 44.3629762,20.9015274 44.5995994,20.9015274 C45.4924252,20.9015274 46.3486598,20.6215633 47.0756054,20.0861935 L58.6530678,11.387661 L54.8890508,36.7194969 L8.05960585,36.7194969 L4.30046772,11.42941 Z" id="Shape"></path>
        </g>
    </g>
</svg>