<?xml version="1.0" encoding="utf-8"?>
<!-- Generator: Adobe Illustrator 26.3.1, SVG Export Plug-In . SVG Version: 6.00 Build 0)  -->
<svg version="1.1" id="avalanche" xmlns="http://www.w3.org/2000/svg" xmlns:xlink="http://www.w3.org/1999/xlink" x="0px" y="0px"
	 viewBox="0 0 24 24" style="enable-background:new 0 0 24 24;" xml:space="preserve">
<style type="text/css">
	.st0{fill:#D64F4A;}
	.st1{fill-rule:evenodd;clip-rule:evenodd;fill:#FFFFFF;}
</style>
<circle class="st0" cx="12" cy="12" r="12"/>
<path class="st1" d="M9,17H6.6c-0.6,0-0.8,0-1-0.1c-0.2-0.1-0.3-0.3-0.3-0.5c0-0.2,0.1-0.4,0.4-0.9l0,0l5.1-9.2
	c0.3-0.5,0.4-0.7,0.6-0.8c0.2-0.1,0.4-0.1,0.6,0c0.2,0.1,0.3,0.3,0.6,0.8l1.2,2.1l0,0c0.2,0.4,0.3,0.5,0.4,0.7c0,0.2,0,0.4,0,0.6
	c0,0.2-0.1,0.4-0.3,0.7l-3.1,5.5c-0.2,0.4-0.3,0.6-0.5,0.7c-0.2,0.1-0.3,0.3-0.5,0.3C9.6,17,9.4,17,9,17z M17.4,17h-2.7
	c-0.6,0-0.8,0-1-0.1c-0.2-0.1-0.3-0.3-0.3-0.5c0-0.2,0.1-0.4,0.4-0.9l1.4-2.4c0.3-0.5,0.4-0.7,0.6-0.8c0.2-0.1,0.4-0.1,0.6,0
	c0.2,0.1,0.3,0.3,0.6,0.8l0,0l1.4,2.4c0.3,0.5,0.4,0.7,0.4,0.9c0,0.2-0.1,0.4-0.3,0.5C18.2,17,17.9,17,17.4,17z"/>
</svg>
