<?xml version="1.0" encoding="UTF-8"?>
<svg width="68px" height="57px" viewBox="0 0 68 57" version="1.1" xmlns="http://www.w3.org/2000/svg" xmlns:xlink="http://www.w3.org/1999/xlink">
    <title>owner</title>
    <g id="Page-1" stroke="none" stroke-width="1" fill="none" fill-rule="evenodd">
        <g id="owner" fill="#E5E5EA" fill-rule="nonzero">
            <path d="M61.9134263,6.82342307 C58.5571934,6.82342307 55.8268525,9.52053449 55.8268525,12.8359206 C55.8268525,13.8977402 56.1080504,14.8968363 56.6001467,15.763765 L46.0393517,23.51236 L37.4945641,10.7974062 C38.954979,9.69750442 39.9006203,7.96364708 39.9006203,6.01249754 C39.9006203,2.69711142 37.1702795,0 33.8140466,0 C30.4578136,0 27.7274728,2.69711142 27.7274728,6.01249754 C27.7274728,7.97708784 28.6867205,9.72662606 30.1675449,10.8242877 L21.6408991,23.51236 L11.3091443,15.9317744 C11.8624692,15.0267636 12.1799506,13.9671841 12.1799506,12.8359206 C12.1799506,9.52053449 9.44960982,6.82342307 6.09337691,6.82342307 C2.737144,6.82342307 0,9.52053449 0,12.8359206 C0,15.6293574 1.93890482,17.9837296 4.55812713,18.6557673 C4.56266258,18.8215366 4.57853665,18.9895461 4.60574935,19.1575555 L8.1479357,53.7540578 C8.43140132,55.6312832 10.0346829,56.9977599 11.9577136,57 L55.6681118,57 C57.5911425,57 59.1921563,55.6335233 59.475622,53.7562979 L63.0676983,19.1687561 C63.0926432,19.023148 63.1039819,18.8775398 63.1130528,18.7319316 C65.8955513,18.1786206 68,15.745844 68,12.8359206 C68,9.52053449 65.2696592,6.82342307 61.9134263,6.82342307 Z M33.8117788,3.80821379 C35.0431535,3.80821379 36.0432202,4.79834938 36.0432202,6.01249754 C36.0432202,7.22664571 35.0408857,8.21678129 33.8117788,8.21678129 C32.5826719,8.21678129 31.5803375,7.22664571 31.5803375,6.01249754 C31.5803375,4.79834938 32.5826719,3.80821379 33.8117788,3.80821379 Z M6.08657373,15.0424445 C4.85519909,15.0424445 3.8551324,14.0523089 3.8551324,12.8381607 C3.8551324,11.6240126 4.85746682,10.633877 6.08657373,10.633877 C7.31568065,10.633877 8.31801507,11.6240126 8.31801507,12.8381607 C8.31801507,14.0523089 7.31568065,15.0424445 6.08657373,15.0424445 Z M55.5774028,53.0954608 L12.0438871,53.0954608 L10.9939305,42.804323 L56.6273594,42.804323 L55.5774028,53.0954608 Z M56.9471087,39.668147 L10.676449,39.668147 L8.55159074,18.8260169 L9.43600347,19.5159756 L9.43600347,19.4644527 L19.3142133,26.7247003 C19.9854599,27.2085675 20.7791636,27.466182 21.6114187,27.4639418 C21.831388,27.4639418 22.053625,27.4460208 22.2690589,27.4079387 C23.3122124,27.2332089 24.2419796,26.6328552 24.8179817,25.7614463 L33.8140466,12.3766948 L42.8078437,25.756966 C43.3861135,26.6306151 44.3158807,27.2332089 45.3567665,27.4079387 C45.5744681,27.4437807 45.7944374,27.4639418 46.0144067,27.4639418 C46.8443941,27.4639418 47.6403655,27.2085675 48.3161475,26.7202201 L59.0787701,18.7856946 L56.9493764,39.6659069 L56.9471087,39.668147 Z M61.9111585,15.0402044 C60.6797839,15.0402044 59.6797172,14.0500688 59.6797172,12.8359206 C59.6797172,11.6217725 60.6820516,10.6316369 61.9111585,10.6316369 C63.1402655,10.6316369 64.1425999,11.6217725 64.1425999,12.8359206 C64.1425999,14.0500688 63.1402655,15.0402044 61.9111585,15.0402044 Z" id="Shape"></path>
        </g>
    </g>
</svg>